<!-- Generated by IcoMoon.io -->
<svg version="1.1" xmlns="http://www.w3.org/2000/svg" width="24" height="28" viewBox="0 0 24 28">
<title>arrows-alt</title>
<path d="M20.047 8.453l-5.547 5.547 5.547 5.547 2.25-2.25c0.281-0.297 0.719-0.375 1.094-0.219 0.359 0.156 0.609 0.516 0.609 0.922v7c0 0.547-0.453 1-1 1h-7c-0.406 0-0.766-0.25-0.922-0.625-0.156-0.359-0.078-0.797 0.219-1.078l2.25-2.25-5.547-5.547-5.547 5.547 2.25 2.25c0.297 0.281 0.375 0.719 0.219 1.078-0.156 0.375-0.516 0.625-0.922 0.625h-7c-0.547 0-1-0.453-1-1v-7c0-0.406 0.25-0.766 0.625-0.922 0.359-0.156 0.797-0.078 1.078 0.219l2.25 2.25 5.547-5.547-5.547-5.547-2.25 2.25c-0.187 0.187-0.438 0.297-0.703 0.297-0.125 0-0.266-0.031-0.375-0.078-0.375-0.156-0.625-0.516-0.625-0.922v-7c0-0.547 0.453-1 1-1h7c0.406 0 0.766 0.25 0.922 0.625 0.156 0.359 0.078 0.797-0.219 1.078l-2.25 2.25 5.547 5.547 5.547-5.547-2.25-2.25c-0.297-0.281-0.375-0.719-0.219-1.078 0.156-0.375 0.516-0.625 0.922-0.625h7c0.547 0 1 0.453 1 1v7c0 0.406-0.25 0.766-0.609 0.922-0.125 0.047-0.266 0.078-0.391 0.078-0.266 0-0.516-0.109-0.703-0.297z"></path>
</svg>
