<!-- Generated by IcoMoon.io -->
<svg version="1.1" xmlns="http://www.w3.org/2000/svg" width="416" height="448" viewBox="0 0 416 448">
<title></title>
<g id="icomoon-ignore">
</g>
<path d="M32 416h72v-72h-72v72zM120 416h80v-72h-80v72zM32 328h72v-80h-72v80zM120 328h80v-80h-80v80zM32 232h72v-72h-72v72zM216 416h80v-72h-80v72zM120 232h80v-72h-80v72zM312 416h72v-72h-72v72zM216 328h80v-80h-80v80zM128 112v-72c0-4.25-3.75-8-8-8h-16c-4.25 0-8 3.75-8 8v72c0 4.25 3.75 8 8 8h16c4.25 0 8-3.75 8-8zM312 328h72v-80h-72v80zM216 232h80v-72h-80v72zM312 232h72v-72h-72v72zM320 112v-72c0-4.25-3.75-8-8-8h-16c-4.25 0-8 3.75-8 8v72c0 4.25 3.75 8 8 8h16c4.25 0 8-3.75 8-8zM416 96v320c0 17.5-14.5 32-32 32h-352c-17.5 0-32-14.5-32-32v-320c0-17.5 14.5-32 32-32h32v-24c0-22 18-40 40-40h16c22 0 40 18 40 40v24h96v-24c0-22 18-40 40-40h16c22 0 40 18 40 40v24h32c17.5 0 32 14.5 32 32z"></path>
</svg>
