<!-- Generated by IcoMoon.io -->
<svg version="1.1" xmlns="http://www.w3.org/2000/svg" width="448" height="448" viewBox="0 0 448 448">
<title>times-rectangle-o</title>
<g id="icomoon-ignore">
</g>
<path d="M448 224c0 88.5-100.25 160-224 160-12.25 0-24.5-0.75-36.25-2-32.75 29-71.75 49.5-115 60.5-9 2.5-18.75 4.25-28.5 5.5-5.5 0.5-10.75-3.5-12-9.5v-0.25c-1.25-6.25 3-10 6.75-14.5 15.75-17.75 33.75-32.75 45.5-74.5-51.5-29.25-84.5-74.5-84.5-125.25 0-88.25 100.25-160 224-160s224 71.5 224 160z"></path>
</svg>
