<!-- Generated by IcoMoon.io -->
<svg version="1.1" xmlns="http://www.w3.org/2000/svg" width="448" height="448" viewBox="0 0 448 448">
<title>times-rectangle-o</title>
<g id="icomoon-ignore">
</g>
<path d="M448 177.5v198.5c0 22-18 40-40 40h-368c-22 0-40-18-40-40v-198.5c7.5 8.25 16 15.5 25.25 21.75 41.5 28.25 83.5 56.5 124.25 86.25 21 15.5 47 34.5 74.25 34.5h0.5c27.25 0 53.25-19 74.25-34.5 40.75-29.5 82.75-58 124.5-86.25 9-6.25 17.5-13.5 25-21.75zM448 104c0 28-20.75 53.25-42.75 68.5-39 27-78.25 54-117 81.25-16.25 11.25-43.75 34.25-64 34.25h-0.5c-20.25 0-47.75-23-64-34.25-38.75-27.25-78-54.25-116.75-81.25-17.75-12-43-40.25-43-63 0-24.5 13.25-45.5 40-45.5h368c21.75 0 40 18 40 40z"></path>
</svg>
