<?xml version="1.0" standalone="no"?><!DOCTYPE svg PUBLIC "-//W3C//DTD SVG 1.1//EN" "http://www.w3.org/Graphics/SVG/1.1/DTD/svg11.dtd"><svg t="1597822972415" class="icon" viewBox="0 0 1024 1024" version="1.1" xmlns="http://www.w3.org/2000/svg" p-id="5588" xmlns:xlink="http://www.w3.org/1999/xlink" width="64" height="64"><defs><style type="text/css"></style></defs><path d="M868.6 512v356.6H630.9V512h237.7m0-59.4H630.9c-32.8 0-59.4 26.6-59.4 59.4v356.6c0 32.8 26.6 59.4 59.4 59.4h237.7c32.8 0 59.4-26.6 59.4-59.4V512c0-32.8-26.6-59.4-59.4-59.4zM868.6 155.4v178.3H630.9V155.4h237.7m0-59.4H630.9c-32.8 0-59.4 26.6-59.4 59.4v178.3c0 32.8 26.6 59.4 59.4 59.4h237.7c32.8 0 59.4-26.6 59.4-59.4V155.4c0-32.8-26.6-59.4-59.4-59.4zM452.6 155.4v416H155.4v-416h297.2m0-59.4H155.4C122.6 96 96 122.6 96 155.4v416c0 32.8 26.6 59.4 59.4 59.4h297.1c32.8 0 59.4-26.6 59.4-59.4v-416c0.1-32.8-26.5-59.4-59.3-59.4zM452.6 749.7v118.9H155.4V749.7h297.2m0-59.4H155.4c-32.8 0-59.4 26.6-59.4 59.4v118.9c0 32.8 26.6 59.4 59.4 59.4h297.1c32.8 0 59.4-26.6 59.4-59.4V749.7c0.1-32.8-26.5-59.4-59.3-59.4z" p-id="5589"></path></svg>