<!-- Generated by IcoMoon.io -->
<svg version="1.1" xmlns="http://www.w3.org/2000/svg" width="448" height="448" viewBox="0 0 448 448">
<title>times-rectangle-o</title>
<g id="icomoon-ignore">
</g>
<path d="M436.75 35.25c6.25-6.25 11.25-4 11.25 4.75v368c0 8.75-5 11-11.25 4.75l-177.5-177.5c-1.5-1.5-2.5-3-3.25-4.75v177.5c0 8.75-5 11-11.25 4.75l-177.5-177.5c-1.5-1.5-2.5-3-3.25-4.75v169.5c0 8.75-7.25 16-16 16h-32c-8.75 0-16-7.25-16-16v-352c0-8.75 7.25-16 16-16h32c8.75 0 16 7.25 16 16v169.5c0.75-1.75 1.75-3.25 3.25-4.75l177.5-177.5c6.25-6.25 11.25-4 11.25 4.75v177.5c0.75-1.75 1.75-3.25 3.25-4.75z"></path>
</svg>
