<!-- Generated by IcoMoon.io -->
<svg version="1.1" xmlns="http://www.w3.org/2000/svg" width="1024" height="1024" viewBox="0 0 1024 1024">
<title></title>
<g id="icomoon-ignore">
</g>
<path d="M786.286 804.571h18.286v-365.714h-18.286q-20 0-38.571-6.857t-35.714-21.143-28.571-26.286-28-30.857q-4.571-5.143-6.857-8-41.143-46.286-64-82.857-8-12.571-21.714-38.857-0.571-1.714-6-12.857t-10.571-20.571-11.429-20.286-12.286-17.429-10.571-6.571q-40.571 0-66 17.429t-25.429 55.714q0 24.571 8.571 48.286t18.857 38.857 18.857 31.429 8.571 27.714h-329.143q-28.571 0-50.857 22t-22.286 51.143q0 29.714 21.714 51.429t51.429 21.714h189.143q-8.571 9.714-14.286 27.143t-5.714 31.714q0 39.429 30.286 68-10.286 18.286-10.286 39.429t10 42 27.143 30q-2.286 13.714-2.286 32 0 48.571 27.714 72t77.429 23.429q48 0 104.571-18.286t110.857-36.571 95.429-18.286zM950.857 768q0-14.857-10.857-25.714t-25.714-10.857-25.714 10.857-10.857 25.714 10.857 25.714 25.714 10.857 25.714-10.857 10.857-25.714zM1024 438.857v365.714q0 30.286-21.429 51.714t-51.714 21.429h-164.571q-33.714 0-127.429 33.714-108.571 39.429-181.143 39.429-81.143 0-131.429-44.286t-49.714-124.286l0.571-2.857q-34.857-43.429-34.857-101.714 0-12.571 1.714-24.571-18.857-32.571-21.143-68h-96.571q-60 0-103.143-43.429t-43.143-103.429q0-58.857 43.429-102.286t102.857-43.429h213.714q-12.571-34.286-12.571-73.143 0-69.714 46.571-108t118-38.286q21.714 0 39.714 10t31.429 28.286 23.143 36 21.143 41.143 18.857 35.429q20 31.429 57.143 73.714 1.143 1.714 8 9.714t10.857 12.286 11.714 12.286 13.714 12.857 12.857 10.286 13.429 8 12.286 2.571h164.571q30.286 0 51.714 21.429t21.429 51.714z"></path>
</svg>
