<!-- Generated by IcoMoon.io -->
<svg version="1.1" xmlns="http://www.w3.org/2000/svg" width="352" height="448" viewBox="0 0 352 448">
<title></title>
<g id="icomoon-ignore">
</g>
<path d="M352 310c0 9-4 26.5-7.75 34.75-5.25 12.25-19.25 20.25-30.5 26.5-14.75 8-29.75 12.75-46.5 12.75-23.25 0-44.25-9.5-65.5-17.25-15.25-5.5-30-12.25-43.75-20.75-42.5-26.25-93.75-77.5-120-120-8.5-13.75-15.25-28.5-20.75-43.75-7.75-21.25-17.25-42.25-17.25-65.5 0-16.75 4.75-31.75 12.75-46.5 6.25-11.25 14.25-25.25 26.5-30.5 8.25-3.75 25.75-7.75 34.75-7.75 1.75 0 3.5 0 5.25 0.75 5.25 1.75 10.75 14 13.25 19 8 14.25 15.75 28.75 24 42.75 4 6.5 11.5 14.5 11.5 22.25 0 15.25-45.25 37.5-45.25 51 0 6.75 6.25 15.5 9.75 21.5 25.25 45.5 56.75 77 102.25 102.25 6 3.5 14.75 9.75 21.5 9.75 13.5 0 35.75-45.25 51-45.25 7.75 0 15.75 7.5 22.25 11.5 14 8.25 28.5 16 42.75 24 5 2.5 17.25 8 19 13.25 0.75 1.75 0.75 3.5 0.75 5.25z"></path>
</svg>
