<!-- Generated by IcoMoon.io -->
<svg version="1.1" xmlns="http://www.w3.org/2000/svg" width="416" height="448" viewBox="0 0 416 448">
<title></title>
<g id="icomoon-ignore">
</g>
<path d="M391.5 279.25l-41.75 8.25 46.5 26.75c7.5 4.25 10.25 14.25 5.75 21.75s-14.25 10.25-21.75 5.75l-46.5-26.5 13.75 40c7 20-23.5 30.25-30.25 10.5l-25.5-75-67.75-39v78.25l52 59.5c14 15.75-10.25 37-24 21l-28-32v53.5c0 8.75-7.25 16-16 16s-16-7.25-16-16v-53.5l-28 32c-13.75 16-38-5.25-24-21l52-59.5v-78.25l-67.75 39-25.5 75c-6.75 19.75-37.25 9.5-30.25-10.5l13.75-40-46.5 26.5c-7.5 4.5-17.25 1.75-21.75-5.75s-1.75-17.5 5.75-21.75l46.5-26.75-41.75-8.25c-20.75-4.25-14.5-35.5 6.25-31.5l77.5 15.5 67.75-39.25-67.75-39.25-77.5 15.5c-1 0.25-2.25 0.25-3.25 0.25-19 0-21.75-28-3-31.75l41.75-8.25-46.5-26.75c-7.5-4.25-10.25-14.25-5.75-21.75 4.5-7.75 14.25-10.25 21.75-5.75l46.5 26.5-13.75-40c-7-20 23.5-30.25 30.25-10.5l25.5 75 67.75 39v-78.25l-52-59.5c-14-15.75 10.25-37 24-21l28 32v-53.5c0-8.75 7.25-16 16-16s16 7.25 16 16v53.5l28-32c13.75-16 38 5.25 24 21l-52 59.5v78.25l67.75-39 25.5-75c6.75-19.75 37.25-9.5 30.25 10.5l-13.75 40 46.5-26.5c7.5-4.5 17.25-1.75 21.75 5.75s1.75 17.5-5.75 21.75l-46.5 26.75 41.75 8.25c18.75 3.75 16 31.75-3 31.75-1 0-2.25 0-3.25-0.25l-77.5-15.5-67.75 39.25 67.75 39.25 77.5-15.5c20.75-4 27 27.25 6.25 31.5z"></path>
</svg>
