<!-- Generated by IcoMoon.io -->
<svg version="1.1" xmlns="http://www.w3.org/2000/svg" width="448" height="448" viewBox="0 0 448 448">
<title>times-rectangle-o</title>
<g id="icomoon-ignore">
</g>
<path d="M256 352h160v-32h-160v32zM160 224h256v-32h-256v32zM320 96h96v-32h-96v32zM448 304v64c0 8.75-7.25 16-16 16h-416c-8.75 0-16-7.25-16-16v-64c0-8.75 7.25-16 16-16h416c8.75 0 16 7.25 16 16zM448 176v64c0 8.75-7.25 16-16 16h-416c-8.75 0-16-7.25-16-16v-64c0-8.75 7.25-16 16-16h416c8.75 0 16 7.25 16 16zM448 48v64c0 8.75-7.25 16-16 16h-416c-8.75 0-16-7.25-16-16v-64c0-8.75 7.25-16 16-16h416c8.75 0 16 7.25 16 16z"></path>
</svg>
