<!-- Generated by IcoMoon.io -->
<svg version="1.1" xmlns="http://www.w3.org/2000/svg" width="448" height="448" viewBox="0 0 448 448">
<title></title>
<g id="icomoon-ignore">
</g>
<path d="M314.25 277.75l-36.5 36.5c-3.25 3.25-8.25 3.25-11.5 0l-42.25-42.25-42.25 42.25c-3.25 3.25-8.25 3.25-11.5 0l-36.5-36.5c-3.25-3.25-3.25-8.25 0-11.5l42.25-42.25-42.25-42.25c-3.25-3.25-3.25-8.25 0-11.5l36.5-36.5c3.25-3.25 8.25-3.25 11.5 0l42.25 42.25 42.25-42.25c3.25-3.25 8.25-3.25 11.5 0l36.5 36.5c3.25 3.25 3.25 8.25 0 11.5l-42.25 42.25 42.25 42.25c3.25 3.25 3.25 8.25 0 11.5zM64 352h320v-256h-320v256zM448 72v304c0 22-18 40-40 40h-368c-22 0-40-18-40-40v-304c0-22 18-40 40-40h368c22 0 40 18 40 40z"></path>
</svg>
