<!-- Generated by IcoMoon.io -->
<svg version="1.1" xmlns="http://www.w3.org/2000/svg" width="384" height="448" viewBox="0 0 384 448">
<title></title>
<g id="icomoon-ignore">
</g>
<path d="M287.25 280.5c0-4.25-1.75-8.25-4.75-11.25l-45.25-45.25 45.25-45.25c3-3 4.75-7 4.75-11.25s-1.75-8.5-4.75-11.5l-22.5-22.5c-3-3-7.25-4.75-11.5-4.75s-8.25 1.75-11.25 4.75l-45.25 45.25-45.25-45.25c-3-3-7-4.75-11.25-4.75s-8.5 1.75-11.5 4.75l-22.5 22.5c-3 3-4.75 7.25-4.75 11.5s1.75 8.25 4.75 11.25l45.25 45.25-45.25 45.25c-3 3-4.75 7-4.75 11.25s1.75 8.5 4.75 11.5l22.5 22.5c3 3 7.25 4.75 11.5 4.75s8.25-1.75 11.25-4.75l45.25-45.25 45.25 45.25c3 3 7 4.75 11.25 4.75s8.5-1.75 11.5-4.75l22.5-22.5c3-3 4.75-7.25 4.75-11.5zM384 224c0 106-86 192-192 192s-192-86-192-192 86-192 192-192 192 86 192 192z"></path>
</svg>
