<!-- Generated by IcoMoon.io -->
<svg version="1.1" xmlns="http://www.w3.org/2000/svg" width="23" height="32" viewBox="0 0 23 32">
<title>user</title>
<path d="M22.857 24.982q0 1.946-1.116 3.339t-2.688 1.393h-15.25q-1.571 0-2.688-1.393t-1.116-3.339q0-1.518 0.152-2.866t0.563-2.714 1.045-2.339 1.679-1.589 2.402-0.616q2.339 2.286 5.589 2.286t5.589-2.286q1.357 0 2.402 0.616t1.679 1.589 1.045 2.339 0.563 2.714 0.152 2.866zM18.286 9.143q0 2.839-2.009 4.848t-4.848 2.009-4.848-2.009-2.009-4.848 2.009-4.848 4.848-2.009 4.848 2.009 2.009 4.848z"></path>
</svg>
